<?xml version="1.0" encoding="utf-8"?>
<!-- Generator: Adobe Illustrator 16.0.0, SVG Export Plug-In . SVG Version: 6.00 Build 0)  -->
<!DOCTYPE svg PUBLIC "-//W3C//DTD SVG 1.1//EN" "http://www.w3.org/Graphics/SVG/1.1/DTD/svg11.dtd">
<svg version="1.1" xmlns="http://www.w3.org/2000/svg" xmlns:xlink="http://www.w3.org/1999/xlink" x="0px" y="0px" width="2000px"
	 height="980px" viewBox="0 0 2000 980" enable-background="new 0 0 2000 980" xml:space="preserve">
<g id="Layer_4" display="none">
	<rect display="inline" width="2000" height="980"/>
</g>
<g id="st" display="none">
</g>
<g id="Layer_2" display="none">
	<g display="inline">
		<path fill="#F0F1F2" d="M833.131,212.471h-42.022h-5.443h-37.119c-2.226,0-4.147,0.177-5.761,0.527
			c-1.616,0.352-2.925,0.904-3.929,1.656c-1.004,0.753-1.746,1.75-2.226,2.986c-0.48,1.238-0.72,2.729-0.72,4.468v1.706
			c0,1.473,0.186,2.753,0.557,3.84c0.37,1.087,1.036,1.99,1.996,2.71c0.96,0.721,2.26,1.256,3.896,1.606
			c1.637,0.352,3.699,0.527,6.187,0.527h21.277c1.745,0,3.011,0.226,3.797,0.677c0.786,0.452,1.178,1.214,1.178,2.284v1.857
			c0,1.172-0.392,1.949-1.178,2.333c-0.786,0.386-2.073,0.578-3.862,0.578h-33.913v6.475h34.436c2.488,0,4.593-0.167,6.318-0.502
			c1.723-0.334,3.131-0.854,4.223-1.556c1.09-0.703,1.876-1.614,2.357-2.736c0.479-1.119,0.72-2.484,0.72-4.089v-2.712
			c0-1.539-0.241-2.861-0.72-3.965c-0.481-1.104-1.267-2.008-2.357-2.711c-1.092-0.701-2.5-1.212-4.223-1.529
			c-1.725-0.318-3.83-0.478-6.318-0.478h-20.884c-1.615,0-2.75-0.226-3.404-0.679c-0.655-0.451-0.982-1.212-0.982-2.283v-1.104
			c0-1.372,0.36-2.284,1.08-2.736c0.72-0.451,1.843-0.677,3.371-0.677h36.203v0.101h18.724v27.655h10.017v-27.655h18.724V212.471z"
			/>
		<path fill="#F0F1F2" d="M867.436,212.672c-1.091-0.637-2.642-0.954-4.648-0.954c-2.052,0-3.624,0.317-4.714,0.954
			c-1.091,0.636-2.03,1.439-2.815,2.408l-25.925,31.622h11.457l21.801-27.255l10.801,13.502l-13.923,5.873h18.572l6.481,7.88h11.522
			L870.25,215.08C869.464,214.111,868.526,213.308,867.436,212.672"/>
		<path fill="#F0F1F2" d="M939.122,235.107c3.055,0,5.696-0.151,7.922-0.451c2.226-0.302,4.07-0.828,5.532-1.582
			c1.462-0.752,2.542-1.772,3.241-3.061c0.697-1.288,1.047-2.92,1.047-4.895v-2.358c0-2.041-0.327-3.731-0.982-5.069
			c-0.655-1.337-1.692-2.392-3.11-3.162c-1.418-0.77-3.24-1.305-5.467-1.607c-2.225-0.301-4.909-0.451-8.052-0.451h-34.96v34.231
			h9.886v-12.448l26.122,12.448h17.152l-26.187-11.595H939.122z M914.179,218.896h24.42c1.614,0,2.967,0.05,4.058,0.15
			c1.091,0.1,1.942,0.301,2.554,0.603c0.61,0.301,1.047,0.735,1.309,1.305c0.262,0.568,0.393,1.304,0.393,2.208v1.857
			c0,0.938-0.131,1.69-0.393,2.258c-0.262,0.569-0.71,1.004-1.342,1.305c-0.633,0.302-1.484,0.502-2.553,0.603
			c-1.07,0.101-2.412,0.151-4.026,0.151h-24.42V218.896z"/>
		<polygon fill="#F0F1F2" points="1015.392,212.471 1001.972,212.471 977.617,228.834 977.617,212.471 967.731,212.471 
			967.731,246.702 977.617,246.702 977.617,229.988 1002.495,246.702 1016.112,246.702 989.859,229.084 		"/>
		<path fill="#F0F1F2" d="M1102.985,215.106c-1.31-0.921-3.065-1.589-5.27-2.008c-2.203-0.418-4.965-0.628-8.283-0.628h-35.352
			v34.23h35.352c3.318,0,6.08-0.208,8.283-0.628c2.204-0.417,3.96-1.085,5.27-2.007c1.31-0.919,2.236-2.123,2.785-3.614
			c0.543-1.487,0.817-3.319,0.817-5.496v-10.739c0-2.142-0.274-3.966-0.817-5.471
			C1105.222,217.24,1104.295,216.027,1102.985,215.106 M1096.638,234.705c0,1.073-0.145,1.959-0.429,2.662s-0.731,1.263-1.341,1.68
			c-0.61,0.419-1.396,0.711-2.357,0.88c-0.961,0.167-2.117,0.251-3.471,0.251h-25.007v-21.131h25.007
			c1.484,0,2.708,0.092,3.669,0.275c0.958,0.186,1.733,0.486,2.322,0.903c0.59,0.419,1.006,0.987,1.245,1.706
			c0.24,0.72,0.361,1.6,0.361,2.636V234.705z"/>
		<path fill="#F0F1F2" d="M1150.122,212.672c-1.09-0.637-2.641-0.954-4.647-0.954c-2.052,0-3.623,0.317-4.713,0.954
			c-1.091,0.636-2.03,1.439-2.815,2.408l-25.926,31.622h11.457l21.801-27.255l10.803,13.502l-13.924,5.873h18.572l6.48,7.88h11.523
			l-25.794-31.622C1152.153,214.111,1151.214,213.308,1150.122,212.672"/>
		<polygon fill="#F0F1F2" points="1222.334,212.471 1174.869,212.471 1174.869,219.047 1193.595,219.047 1193.595,246.702 
			1203.61,246.702 1203.61,219.047 1222.334,219.047 		"/>
		<path fill="#F0F1F2" d="M1256.639,212.672c-1.091-0.637-2.641-0.954-4.647-0.954c-2.052,0-3.623,0.317-4.714,0.954
			c-1.09,0.636-2.029,1.439-2.814,2.408l-25.926,31.622h11.457l21.801-27.255l10.803,13.502l-13.924,5.873h18.572l6.48,7.88h11.523
			l-25.794-31.622C1258.67,214.111,1257.73,213.308,1256.639,212.672"/>
		<polygon fill="#F0F1F2" points="672.174,278.164 690.898,278.164 690.898,305.818 700.914,305.818 700.914,278.164 
			719.64,278.164 719.64,271.589 672.174,271.589 		"/>
		<path fill="#F0F1F2" d="M737.249,272.216c-2.184,0.419-3.929,1.087-5.237,2.009c-1.309,0.919-2.237,2.133-2.781,3.639
			c-0.547,1.505-0.82,3.329-0.82,5.471v10.739c0,2.177,0.273,4.009,0.82,5.497c0.544,1.49,1.473,2.693,2.781,3.613
			c1.309,0.922,3.054,1.59,5.237,2.007c2.183,0.42,4.91,0.629,8.185,0.629h31.162v-6.475h-31.162c-1.441,0-2.63-0.075-3.569-0.227
			c-0.938-0.15-1.668-0.425-2.191-0.827c-0.524-0.402-0.886-0.936-1.081-1.606c-0.197-0.669-0.294-1.522-0.294-2.561v-2.409h38.036
			v-6.073h-38.036v-2.308c0-1.004,0.097-1.841,0.294-2.51c0.195-0.67,0.566-1.204,1.113-1.606c0.546-0.401,1.276-0.694,2.193-0.878
			c0.916-0.185,2.094-0.276,3.535-0.276h31.162v-6.476h-31.162C742.159,271.588,739.432,271.798,737.249,272.216"/>
		<path fill="#F0F1F2" d="M795.449,272.216c-2.183,0.419-3.928,1.087-5.236,2.009c-1.311,0.919-2.237,2.133-2.782,3.639
			c-0.546,1.505-0.819,3.329-0.819,5.471v10.739c0,2.177,0.273,4.009,0.819,5.497c0.545,1.49,1.472,2.693,2.782,3.613
			c1.309,0.922,3.054,1.59,5.236,2.007c2.184,0.42,4.912,0.629,8.186,0.629h30.966v-6.524h-30.442c-1.527,0-2.794-0.084-3.797-0.251
			c-1.004-0.169-1.791-0.47-2.357-0.903c-0.567-0.435-0.961-1.004-1.178-1.707c-0.22-0.703-0.327-1.589-0.327-2.66v-10.039
			c0-1.037,0.107-1.916,0.327-2.635c0.217-0.719,0.61-1.297,1.178-1.731c0.566-0.435,1.343-0.744,2.324-0.929
			c0.982-0.184,2.237-0.275,3.766-0.275h30.507v-6.576h-30.966C800.361,271.588,797.633,271.798,795.449,272.216"/>
		<polygon fill="#F0F1F2" points="887.63,285.541 854.896,285.541 854.896,271.588 844.943,271.588 844.943,305.818 
			854.896,305.818 854.896,292.166 887.63,292.166 887.63,305.818 897.515,305.818 897.515,271.588 887.63,271.588 		"/>
		<path fill="#F0F1F2" d="M951.854,296.334l-32.799-24.244c-0.482-0.367-1.093-0.668-1.836-0.904
			c-0.741-0.233-1.679-0.351-2.814-0.351c-1.571,0-2.846,0.26-3.828,0.779c-0.982,0.519-1.474,1.313-1.474,2.382v31.823h9.229
			v-24.343l32.539,23.489c0.786,0.569,1.626,0.979,2.521,1.23c0.894,0.251,1.865,0.376,2.913,0.376c1.483,0,2.685-0.244,3.601-0.729
			c0.917-0.484,1.375-1.297,1.375-2.434v-31.822h-9.427V296.334z"/>
		<path fill="#F0F1F2" d="M1019.939,274.224c-1.31-0.921-3.057-1.589-5.237-2.009c-2.183-0.418-4.935-0.627-8.25-0.627h-16.955
			c-3.274,0-6.002,0.209-8.185,0.627c-2.184,0.42-3.929,1.088-5.237,2.009c-1.31,0.921-2.237,2.134-2.782,3.64
			c-0.546,1.505-0.819,3.329-0.819,5.469v10.742c0,2.176,0.273,4.007,0.819,5.496c0.545,1.489,1.473,2.693,2.782,3.613
			c1.309,0.922,3.054,1.59,5.237,2.008c2.183,0.42,4.91,0.627,8.185,0.627h16.955c3.315,0,6.067-0.207,8.25-0.627
			c2.181-0.418,3.928-1.086,5.237-2.008c1.309-0.92,2.234-2.124,2.782-3.613c0.544-1.489,0.818-3.32,0.818-5.496v-10.742
			c0-2.14-0.274-3.964-0.818-5.469C1022.174,276.357,1021.248,275.145,1019.939,274.224 M1013.589,293.772
			c0,1.104-0.121,2.017-0.36,2.736c-0.239,0.719-0.644,1.288-1.211,1.706c-0.568,0.418-1.343,0.703-2.324,0.854
			c-0.982,0.15-2.194,0.227-3.635,0.227h-16.104c-1.571,0-2.849-0.076-3.831-0.227c-0.981-0.15-1.758-0.436-2.323-0.854
			c-0.567-0.418-0.949-0.987-1.146-1.706c-0.196-0.72-0.294-1.632-0.294-2.736v-10.088c0-1.071,0.098-1.957,0.294-2.66
			c0.196-0.702,0.578-1.272,1.146-1.706c0.565-0.435,1.342-0.735,2.323-0.903c0.982-0.168,2.26-0.251,3.831-0.251h16.104
			c1.44,0,2.652,0.083,3.635,0.251c0.981,0.168,1.756,0.469,2.324,0.903c0.567,0.434,0.972,1.004,1.211,1.706
			c0.239,0.703,0.36,1.589,0.36,2.66V293.772z"/>
		<path fill="#F0F1F2" d="M1048.645,298.993c-1.025-0.2-1.845-0.527-2.454-0.979c-0.613-0.452-1.038-1.021-1.277-1.707
			c-0.242-0.685-0.36-1.532-0.36-2.535v-22.185h-9.886v22.485c0,2.177,0.273,4.008,0.819,5.497c0.544,1.489,1.472,2.693,2.781,3.613
			c1.309,0.922,3.055,1.59,5.236,2.008c2.184,0.42,4.912,0.627,8.186,0.627h27.365v-6.523h-26.515
			C1050.969,299.295,1049.669,299.194,1048.645,298.993"/>
		<path fill="#F0F1F2" d="M1134.639,274.224c-1.31-0.921-3.057-1.589-5.237-2.009c-2.183-0.418-4.934-0.627-8.25-0.627h-16.955
			c-3.274,0-6.002,0.209-8.185,0.627c-2.184,0.42-3.929,1.088-5.237,2.009c-1.31,0.921-2.237,2.134-2.782,3.64
			c-0.546,1.505-0.818,3.329-0.818,5.469v10.742c0,2.176,0.272,4.007,0.818,5.496c0.545,1.489,1.473,2.693,2.782,3.613
			c1.309,0.922,3.054,1.59,5.237,2.008c2.183,0.42,4.91,0.627,8.185,0.627h16.955c3.316,0,6.067-0.207,8.25-0.627
			c2.181-0.418,3.928-1.086,5.237-2.008c1.309-0.92,2.234-2.124,2.783-3.613c0.543-1.489,0.817-3.32,0.817-5.496v-10.742
			c0-2.14-0.274-3.964-0.817-5.469C1136.873,276.357,1135.947,275.145,1134.639,274.224 M1128.288,293.772
			c0,1.104-0.121,2.017-0.36,2.736c-0.239,0.719-0.644,1.288-1.21,1.706c-0.569,0.418-1.344,0.703-2.325,0.854
			c-0.982,0.15-2.194,0.227-3.634,0.227h-16.104c-1.571,0-2.849-0.076-3.831-0.227c-0.981-0.15-1.758-0.436-2.323-0.854
			c-0.567-0.418-0.949-0.987-1.146-1.706c-0.196-0.72-0.294-1.632-0.294-2.736v-10.088c0-1.071,0.098-1.957,0.294-2.66
			c0.196-0.702,0.578-1.272,1.146-1.706c0.565-0.435,1.342-0.735,2.323-0.903c0.982-0.168,2.26-0.251,3.831-0.251h16.104
			c1.439,0,2.651,0.083,3.634,0.251c0.981,0.168,1.756,0.469,2.325,0.903c0.566,0.434,0.971,1.004,1.21,1.706
			c0.239,0.703,0.36,1.589,0.36,2.66V293.772z"/>
		<path fill="#F0F1F2" d="M1158.073,272.216c-2.184,0.419-3.929,1.087-5.237,2.009c-1.309,0.919-2.237,2.133-2.782,3.639
			c-0.546,1.505-0.818,3.329-0.818,5.471v10.739c0,2.177,0.272,4.009,0.818,5.497c0.545,1.49,1.474,2.693,2.782,3.613
			c1.309,0.922,3.054,1.59,5.237,2.007c2.183,0.42,4.911,0.629,8.185,0.629h17.609c3.316,0,6.079-0.209,8.281-0.629
			c2.204-0.417,3.963-1.085,5.271-2.007c1.309-0.92,2.235-2.123,2.783-3.613c0.545-1.488,0.818-3.32,0.818-5.497v-2.081v-6.45
			h-9.951h-15.942v6.45h15.942v1.479c0,1.204-0.131,2.192-0.394,2.962c-0.262,0.77-0.688,1.363-1.276,1.781
			c-0.59,0.419-1.365,0.703-2.323,0.854c-0.962,0.15-2.141,0.227-3.537,0.227h-16.824c-1.44,0-2.651-0.076-3.634-0.227
			s-1.768-0.427-2.357-0.828c-0.589-0.4-1.004-0.962-1.244-1.682c-0.24-0.719-0.358-1.647-0.358-2.785v-10.089
			c0-1.037,0.118-1.907,0.358-2.61c0.24-0.702,0.645-1.271,1.213-1.706c0.564-0.435,1.341-0.744,2.322-0.929
			c0.982-0.184,2.215-0.275,3.7-0.275h34.306v-6.576h-34.764C1162.984,271.588,1160.256,271.798,1158.073,272.216"/>
		<rect x="1211.954" y="271.588" fill="#F0F1F2" width="9.952" height="34.231"/>
		<path fill="#F0F1F2" d="M1242.199,272.216c-2.184,0.419-3.929,1.087-5.237,2.009c-1.309,0.919-2.237,2.133-2.781,3.639
			c-0.547,1.505-0.819,3.329-0.819,5.471v10.739c0,2.177,0.272,4.009,0.819,5.497c0.544,1.49,1.473,2.693,2.781,3.613
			c1.309,0.922,3.054,1.59,5.237,2.007c2.183,0.42,4.91,0.629,8.185,0.629h31.162v-6.475h-31.162c-1.439,0-2.63-0.075-3.569-0.227
			c-0.938-0.15-1.668-0.425-2.191-0.827c-0.524-0.402-0.885-0.936-1.081-1.606c-0.197-0.669-0.294-1.522-0.294-2.561v-2.409h38.036
			v-6.073h-38.036v-2.308c0-1.004,0.097-1.841,0.294-2.51c0.196-0.67,0.567-1.204,1.113-1.606c0.546-0.401,1.276-0.694,2.193-0.878
			c0.916-0.185,2.096-0.276,3.535-0.276h31.162v-6.476h-31.162C1247.109,271.588,1244.382,271.798,1242.199,272.216"/>
		<path fill="#F0F1F2" d="M1300.826,278.74c0.72-0.451,1.843-0.677,3.372-0.677h34.436v-6.475h-35.352
			c-2.229,0-4.149,0.175-5.763,0.526c-1.614,0.352-2.924,0.903-3.929,1.656c-1.004,0.753-1.745,1.75-2.225,2.986
			c-0.481,1.238-0.72,2.729-0.72,4.467v1.707c0,1.473,0.185,2.754,0.557,3.84c0.37,1.088,1.036,1.99,1.996,2.711
			c0.959,0.72,2.259,1.254,3.896,1.605c1.636,0.352,3.697,0.525,6.188,0.525h21.275c1.745,0,3.012,0.228,3.798,0.68
			c0.786,0.451,1.179,1.213,1.179,2.283v1.857c0,1.172-0.393,1.948-1.179,2.333c-0.786,0.386-2.073,0.577-3.863,0.577h-33.912v6.475
			h34.436c2.487,0,4.594-0.166,6.318-0.501c1.724-0.334,3.131-0.853,4.223-1.556s1.876-1.615,2.357-2.736
			c0.479-1.119,0.72-2.484,0.72-4.09v-2.712c0-1.538-0.241-2.86-0.72-3.964c-0.481-1.104-1.266-2.008-2.357-2.711
			s-2.499-1.212-4.223-1.529c-1.725-0.318-3.831-0.479-6.318-0.479h-20.883c-1.616,0-2.751-0.225-3.406-0.678
			c-0.654-0.451-0.981-1.212-0.981-2.282v-1.104C1299.745,280.104,1300.105,279.192,1300.826,278.74"/>
	</g>
</g>
<g id="Layer_3" display="none">
	
		<linearGradient id="SVGID_1_" gradientUnits="userSpaceOnUse" x1="936.6807" y1="654.6738" x2="1059.0947" y2="654.6738" gradientTransform="matrix(-1 0 0 -1 2000 1172.3867)">
		<stop  offset="0" style="stop-color:#61E0FB"/>
		<stop  offset="1" style="stop-color:#1E6ACB"/>
	</linearGradient>
	<polygon display="inline" fill="url(#SVGID_1_)" points="1063.319,547.789 1000.873,487.638 940.905,547.789 	"/>
	
		<linearGradient id="SVGID_2_" gradientUnits="userSpaceOnUse" x1="759.3916" y1="707.7012" x2="1238.4951" y2="707.7012" gradientTransform="matrix(-1 0 0 -1 2000 1172.3867)">
		<stop  offset="0" style="stop-color:#61E0FB"/>
		<stop  offset="1" style="stop-color:#1E6ACB"/>
	</linearGradient>
	<polygon display="inline" fill="url(#SVGID_2_)" points="1240.608,517.714 1181.512,411.656 821.656,411.656 761.505,517.714 
		921.909,517.714 1001.057,433.817 1081.259,517.714 	"/>
	
		<linearGradient id="SVGID_3_" gradientUnits="userSpaceOnUse" x1="838.5391" y1="869.9541" x2="1159.3486" y2="869.9541" gradientTransform="matrix(-1 0 0 -1 2000 1172.3867)">
		<stop  offset="0" style="stop-color:#61E0FB"/>
		<stop  offset="1" style="stop-color:#1E6ACB"/>
	</linearGradient>
	<polygon display="inline" fill="url(#SVGID_3_)" points="1161.461,374.721 1079.148,230.145 1001.057,361.002 848.039,362.058 
		840.651,374.721 	"/>
	
		<linearGradient id="SVGID_4_" gradientUnits="userSpaceOnUse" x1="941.958" y1="959.6533" x2="1129.7998" y2="959.6533" gradientTransform="matrix(-1 0 0 -1 2000 1172.3867)">
		<stop  offset="0" style="stop-color:#61E0FB"/>
		<stop  offset="1" style="stop-color:#1E6ACB"/>
	</linearGradient>
	<polygon display="inline" fill="url(#SVGID_4_)" points="982.062,326.178 1058.042,194.266 1001.057,99.29 870.2,326.178 	"/>
</g>
<g id="Layer_1">
	<g>
		<defs>
			<polygon id="SVGID_5_" points="756.128,505.219 1193.559,505.219 1102.918,387.399 911.898,387.399 1038.168,217.599 
				1117.469,320.839 1001.328,320.839 976.888,354.479 1143.379,354.479 1290.938,546.089 724.659,546.089 			"/>
		</defs>
		<clipPath id="SVGID_6_">
			<use xlink:href="#SVGID_5_"  overflow="visible"/>
		</clipPath>
		
			<linearGradient id="SVGID_7_" gradientUnits="userSpaceOnUse" x1="-0.0122" y1="1416.6768" x2="0.9878" y2="1416.6768" gradientTransform="matrix(-566.28 0 0 566.28 1284 -801853.6875)">
			<stop  offset="0" style="stop-color:#61E0FB"/>
			<stop  offset="1" style="stop-color:#1E6ACB"/>
		</linearGradient>
		<rect x="724.659" y="217.599" clip-path="url(#SVGID_6_)" fill="url(#SVGID_7_)" width="566.28" height="328.49"/>
	</g>
	<g>
		<defs>
			<polygon id="SVGID_8_" points="846.859,387.399 1007.598,177.798 1035.969,214.739 905.659,387.399 			"/>
		</defs>
		<clipPath id="SVGID_9_">
			<use xlink:href="#SVGID_8_"  overflow="visible"/>
		</clipPath>
		
			<linearGradient id="SVGID_10_" gradientUnits="userSpaceOnUse" x1="-0.0366" y1="1416.126" x2="0.9634" y2="1416.126" gradientTransform="matrix(-210.3975 0 0 210.3975 1049.625 -297666.625)">
			<stop  offset="0" style="stop-color:#61E0FB"/>
			<stop  offset="1" style="stop-color:#1E6ACB"/>
		</linearGradient>
		<rect x="846.859" y="177.798" clip-path="url(#SVGID_9_)" fill="url(#SVGID_10_)" width="189.11" height="209.601"/>
	</g>
	<g>
		<defs>
			<polygon id="SVGID_11_" points="1183.399,500.224 1100.461,392.403 843.012,392.403 814.524,429.393 1060.178,429.393 
				1084.19,463.032 788.619,463.032 759.975,500.224 			"/>
		</defs>
		<clipPath id="SVGID_12_">
			<use xlink:href="#SVGID_11_"  overflow="visible"/>
		</clipPath>
		
			<linearGradient id="SVGID_13_" gradientUnits="userSpaceOnUse" x1="-0.0186" y1="1416.5664" x2="0.9814" y2="1416.5664" gradientTransform="matrix(-423.4238 0 0 423.4238 1175.75 -599362)">
			<stop  offset="0" style="stop-color:#61E0FB"/>
			<stop  offset="1" style="stop-color:#1E6ACB"/>
		</linearGradient>
		<rect x="759.975" y="392.403" clip-path="url(#SVGID_12_)" fill="url(#SVGID_13_)" width="423.424" height="107.821"/>
	</g>
</g>
<g id="stark_data">
	<g>
		<path fill="#FFFFFF" d="M734.375,570.693v7.79h-0.51v-0.12h-42.87c-1.81,0-3.14,0.25-4,0.79c-0.85,0.54-1.28,1.61-1.28,3.25v1.29
			c0,1.27,0.39,2.17,1.17,2.71c0.77,0.54,2.12,0.81,4.03,0.81h24.73c2.95,0,5.44,0.19,7.48,0.57c2.04,0.37,3.71,0.97,5,1.81
			c1.29,0.83,2.22,1.89,2.79,3.21c0.57,1.31,0.86,2.87,0.86,4.68v3.23c0,1.9-0.29,3.5-0.86,4.84c-0.57,1.33-1.5,2.41-2.79,3.24
			s-2.96,1.45-5,1.84s-4.53,0.59-7.48,0.59h-40.78v-7.67h40.16c2.12,0,3.64-0.23,4.57-0.69c0.94-0.44,1.4-1.36,1.4-2.75v-2.21
			c0-1.27-0.46-2.17-1.4-2.69c-0.93-0.54-2.43-0.81-4.49-0.81h-25.2c-2.95,0-5.39-0.21-7.33-0.62c-1.93-0.42-3.47-1.05-4.61-1.9
			c-1.14-0.85-1.92-1.92-2.36-3.21s-0.66-2.81-0.66-4.56v-2.02c0-2.06,0.28-3.81,0.85-5.29c0.57-1.46,1.45-2.63,2.64-3.54
			c1.19-0.88,2.74-1.53,4.65-1.96c1.91-0.4,4.19-0.61,6.82-0.61H734.375z"/>
		<polygon fill="#FFFFFF" points="804.575,570.693 804.575,578.483 782.395,578.483 782.395,611.223 770.535,611.223 
			770.535,578.483 748.875,578.483 748.875,570.693 		"/>
		<path fill="#FFFFFF" d="M845.947,570.299c-1.292-0.753-3.129-1.129-5.504-1.129c-2.43,0-4.292,0.376-5.583,1.129
			c-1.292,0.754-2.403,1.705-3.333,2.853L800.826,610.6h13.567l25.817-32.276l12.791,15.988l-16.488,6.955h21.994l7.675,9.333
			h13.645l-30.546-37.448C848.349,572.003,847.238,571.053,845.947,570.299L845.947,570.299z"/>
		<path fill="#FFFFFF" d="M930.839,596.867c3.618,0,6.746-0.178,9.381-0.534c2.636-0.356,4.82-0.98,6.551-1.872
			c1.731-0.892,3.01-2.1,3.838-3.626c0.825-1.524,1.24-3.457,1.24-5.796v-2.792c0-2.417-0.387-4.42-1.164-6.004
			c-0.775-1.582-2.003-2.831-3.683-3.745c-1.679-0.911-3.836-1.545-6.474-1.902c-2.635-0.357-5.814-0.535-9.536-0.535h-41.4V610.6
			h11.708v-14.743l30.934,14.743h20.312l-31.011-13.732H930.839z M901.302,577.67h28.918c1.911,0,3.513,0.06,4.806,0.178
			c1.292,0.119,2.299,0.356,3.024,0.714c0.723,0.356,1.24,0.871,1.55,1.545c0.311,0.673,0.465,1.544,0.465,2.613v2.2
			c0,1.11-0.155,2.003-0.465,2.674c-0.31,0.675-0.84,1.19-1.589,1.546c-0.75,0.357-1.757,0.594-3.023,0.714
			c-1.267,0.118-2.856,0.178-4.768,0.178h-28.918V577.67z"/>
		<polygon fill="#FFFFFF" points="1021.16,570.061 1005.267,570.061 976.426,589.438 976.426,570.061 964.719,570.061 
			964.719,610.6 976.426,610.6 976.426,590.805 1005.887,610.6 1022.013,610.6 990.923,589.734 		"/>
		<path fill="#FFFFFF" d="M1124.889,573.183c-1.55-1.09-3.629-1.882-6.239-2.377c-2.608-0.495-5.88-0.745-9.809-0.745h-41.864
			v40.537h41.864c3.929,0,7.2-0.246,9.809-0.743c2.61-0.495,4.689-1.286,6.239-2.378c1.552-1.087,2.648-2.514,3.299-4.278
			c0.643-1.763,0.969-3.933,0.969-6.509V583.97c0-2.535-0.326-4.695-0.969-6.479C1127.537,575.71,1126.44,574.272,1124.889,573.183
			L1124.889,573.183z M1117.372,596.391c0,1.272-0.171,2.321-0.507,3.152c-0.337,0.833-0.865,1.497-1.588,1.989
			c-0.723,0.497-1.653,0.844-2.792,1.043c-1.138,0.198-2.507,0.297-4.11,0.297h-29.613v-25.024h29.613
			c1.759,0,3.207,0.109,4.346,0.326c1.134,0.22,2.053,0.576,2.75,1.071c0.698,0.495,1.191,1.169,1.474,2.021
			c0.284,0.852,0.428,1.893,0.428,3.121V596.391z"/>
		<path fill="#FFFFFF" d="M1180.711,570.299c-1.292-0.753-3.128-1.129-5.504-1.129c-2.43,0-4.291,0.376-5.582,1.129
			c-1.292,0.754-2.404,1.705-3.333,2.853L1135.59,610.6h13.567l25.817-32.276l12.793,15.988l-16.489,6.955h21.993l7.675,9.333
			h13.646l-30.545-37.448C1183.115,572.003,1182.002,571.053,1180.711,570.299L1180.711,570.299z"/>
		<polygon fill="#FFFFFF" points="1266.225,570.061 1210.016,570.061 1210.016,577.848 1232.191,577.848 1232.191,610.6 
			1244.052,610.6 1244.052,577.848 1266.225,577.848 		"/>
		<path fill="#FFFFFF" d="M1306.85,570.299c-1.292-0.753-3.127-1.129-5.504-1.129c-2.431,0-4.291,0.376-5.582,1.129
			c-1.291,0.754-2.403,1.705-3.333,2.853l-30.702,37.448h13.568l25.816-32.276l12.793,15.988l-16.489,6.955h21.994l7.675,9.333
			h13.646l-30.546-37.448C1309.255,572.003,1308.142,571.053,1306.85,570.299L1306.85,570.299z"/>
	</g>
</g>
<g id="Layer_6">
	<path fill="#FFFFFF" d="M1173.617,639.95c0.408-0.255,1.045-0.383,1.91-0.383h19.514v-3.668h-20.033
		c-1.262,0-2.35,0.099-3.264,0.298c-0.916,0.198-1.656,0.512-2.227,0.938c-0.568,0.427-0.988,0.991-1.26,1.691
		c-0.273,0.701-0.408,1.546-0.408,2.531v0.968c0,0.834,0.104,1.56,0.314,2.176c0.211,0.615,0.588,1.128,1.131,1.535
		c0.543,0.408,1.281,0.711,2.209,0.91c0.926,0.199,2.094,0.298,3.504,0.298h12.057c0.988,0,1.707,0.129,2.152,0.385
		s0.668,0.688,0.668,1.293v1.053c0,0.664-0.223,1.105-0.668,1.323s-1.176,0.327-2.189,0.327h-19.217v3.669h19.514
		c1.408,0,2.602-0.095,3.58-0.284c0.977-0.189,1.773-0.484,2.393-0.882c0.617-0.398,1.062-0.916,1.336-1.551
		c0.271-0.634,0.408-1.407,0.408-2.317v-1.537c0-0.872-0.137-1.62-0.408-2.246c-0.273-0.625-0.719-1.138-1.336-1.535
		c-0.619-0.398-1.416-0.687-2.393-0.867c-0.979-0.181-2.172-0.271-3.58-0.271h-11.834c-0.914,0-1.559-0.127-1.93-0.384
		c-0.371-0.256-0.557-0.687-0.557-1.293v-0.626C1173.004,640.724,1173.209,640.207,1173.617,639.95"/>
	<path fill="#FFFFFF" d="M1140.398,636.254c-1.238,0.237-2.227,0.616-2.969,1.138s-1.268,1.209-1.576,2.062
		c-0.311,0.854-0.463,1.887-0.463,3.101v6.085c0,1.233,0.152,2.271,0.463,3.114c0.309,0.845,0.834,1.527,1.576,2.048
		c0.742,0.522,1.73,0.9,2.969,1.138c1.236,0.238,2.781,0.356,4.637,0.356h17.658v-3.669h-17.658c-0.816,0-1.49-0.043-2.021-0.128
		c-0.533-0.085-0.945-0.241-1.242-0.47c-0.297-0.228-0.502-0.529-0.613-0.909s-0.166-0.863-0.166-1.451v-1.366h21.553v-3.439
		h-21.553v-1.309c0-0.569,0.055-1.043,0.166-1.422c0.111-0.38,0.322-0.683,0.631-0.91c0.311-0.229,0.725-0.394,1.242-0.498
		c0.52-0.104,1.188-0.156,2.004-0.156h17.658v-3.67h-17.658C1143.18,635.897,1141.635,636.017,1140.398,636.254"/>
	<rect x="1123.26" y="635.897" fill="#FFFFFF" width="5.639" height="19.397"/>
	<path fill="#FFFFFF" d="M1092.729,636.254c-1.236,0.237-2.225,0.616-2.967,1.138s-1.268,1.209-1.576,2.062
		c-0.311,0.854-0.465,1.887-0.465,3.101v6.085c0,1.233,0.154,2.271,0.465,3.114c0.309,0.845,0.834,1.527,1.576,2.048
		c0.742,0.522,1.73,0.9,2.967,1.138c1.238,0.238,2.783,0.356,4.639,0.356h9.979c1.879,0,3.443-0.118,4.691-0.356
		c1.25-0.237,2.246-0.615,2.986-1.138c0.742-0.521,1.268-1.203,1.578-2.048c0.309-0.843,0.463-1.881,0.463-3.114v-1.179v-3.654
		h-5.639h-9.033v3.654h9.033v0.838c0,0.683-0.074,1.242-0.223,1.679c-0.148,0.436-0.389,0.772-0.723,1.009
		c-0.334,0.238-0.773,0.398-1.316,0.483c-0.545,0.085-1.213,0.128-2.004,0.128h-9.533c-0.816,0-1.502-0.043-2.061-0.128
		c-0.557-0.085-1-0.241-1.334-0.469s-0.57-0.544-0.705-0.952c-0.137-0.408-0.203-0.934-0.203-1.579v-5.716
		c0-0.588,0.066-1.081,0.203-1.479c0.135-0.398,0.365-0.721,0.686-0.967s0.762-0.421,1.316-0.525
		c0.557-0.105,1.256-0.157,2.098-0.157h19.438v-3.727h-19.697C1095.512,635.897,1093.967,636.017,1092.729,636.254"/>
	<path fill="#FFFFFF" d="M1079.451,637.392c-0.742-0.521-1.732-0.9-2.969-1.138s-2.795-0.356-4.674-0.356h-9.607
		c-1.855,0-3.4,0.119-4.639,0.356c-1.236,0.237-2.225,0.616-2.967,1.138s-1.268,1.209-1.576,2.062
		c-0.309,0.854-0.465,1.887-0.465,3.1v6.086c0,1.234,0.156,2.271,0.465,3.114c0.309,0.845,0.834,1.527,1.576,2.048
		c0.742,0.523,1.73,0.9,2.967,1.138c1.238,0.238,2.783,0.356,4.639,0.356h9.607c1.879,0,3.438-0.118,4.674-0.356
		c1.236-0.237,2.227-0.614,2.969-1.138c0.74-0.521,1.266-1.203,1.576-2.048c0.309-0.843,0.463-1.88,0.463-3.114v-6.086
		c0-1.213-0.154-2.246-0.463-3.1C1080.717,638.601,1080.191,637.913,1079.451,637.392 M1075.852,648.469
		c0,0.625-0.068,1.143-0.203,1.551c-0.137,0.407-0.365,0.729-0.686,0.966c-0.324,0.236-0.762,0.398-1.318,0.483
		c-0.557,0.086-1.242,0.128-2.059,0.128h-9.125c-0.891,0-1.615-0.042-2.172-0.128c-0.555-0.085-0.994-0.247-1.316-0.483
		c-0.32-0.236-0.537-0.559-0.648-0.966c-0.111-0.408-0.166-0.926-0.166-1.551v-5.716c0-0.607,0.055-1.109,0.166-1.508
		s0.328-0.721,0.648-0.967c0.322-0.246,0.762-0.416,1.316-0.512c0.557-0.095,1.281-0.143,2.172-0.143h9.125
		c0.816,0,1.502,0.048,2.059,0.143c0.557,0.096,0.994,0.266,1.318,0.512c0.32,0.246,0.549,0.568,0.686,0.967
		c0.135,0.398,0.203,0.9,0.203,1.508V648.469z"/>
	<path fill="#FFFFFF" d="M1030.725,651.427c-0.582-0.114-1.047-0.299-1.391-0.554c-0.348-0.257-0.59-0.579-0.725-0.968
		c-0.137-0.389-0.205-0.868-0.205-1.437v-12.571h-5.602v12.741c0,1.234,0.156,2.271,0.465,3.114
		c0.309,0.845,0.834,1.527,1.576,2.048c0.742,0.523,1.73,0.9,2.967,1.138c1.238,0.238,2.783,0.356,4.639,0.356h15.506v-3.698
		h-15.023C1032.041,651.597,1031.305,651.541,1030.725,651.427"/>
	<path fill="#FFFFFF" d="M1014.459,637.392c-0.742-0.521-1.732-0.9-2.969-1.138s-2.795-0.356-4.674-0.356h-9.607
		c-1.855,0-3.401,0.119-4.638,0.356c-1.237,0.237-2.226,0.616-2.968,1.138s-1.268,1.209-1.577,2.062
		c-0.309,0.854-0.464,1.887-0.464,3.1v6.086c0,1.234,0.155,2.271,0.464,3.114c0.309,0.845,0.835,1.527,1.577,2.048
		c0.742,0.523,1.73,0.9,2.968,1.138c1.237,0.238,2.782,0.356,4.638,0.356h9.607c1.879,0,3.438-0.118,4.674-0.356
		c1.236-0.237,2.227-0.614,2.969-1.138c0.74-0.521,1.266-1.203,1.576-2.048c0.309-0.843,0.463-1.88,0.463-3.114v-6.086
		c0-1.213-0.154-2.246-0.463-3.1C1015.725,638.601,1015.199,637.913,1014.459,637.392 M1010.859,648.469
		c0,0.625-0.068,1.143-0.203,1.551c-0.135,0.407-0.365,0.729-0.686,0.966c-0.322,0.236-0.762,0.398-1.318,0.483
		c-0.557,0.086-1.242,0.128-2.059,0.128h-9.125c-0.89,0-1.614-0.042-2.17-0.128c-0.557-0.085-0.997-0.247-1.317-0.483
		c-0.321-0.236-0.538-0.559-0.649-0.966c-0.111-0.408-0.167-0.926-0.167-1.551v-5.716c0-0.607,0.055-1.109,0.167-1.508
		s0.328-0.721,0.649-0.967c0.32-0.246,0.76-0.416,1.317-0.512c0.556-0.095,1.28-0.143,2.17-0.143h9.125
		c0.816,0,1.502,0.048,2.059,0.143c0.557,0.096,0.996,0.266,1.318,0.512c0.32,0.246,0.551,0.568,0.686,0.967s0.203,0.9,0.203,1.508
		V648.469z"/>
	<path fill="#FFFFFF" d="M975.879,649.92l-18.585-13.737c-0.273-0.209-0.619-0.379-1.04-0.513c-0.42-0.132-0.951-0.198-1.595-0.198
		c-0.891,0-1.613,0.146-2.169,0.441c-0.557,0.293-0.835,0.744-0.835,1.35v18.032h5.23v-13.794l18.438,13.311
		c0.445,0.322,0.921,0.554,1.428,0.697c0.506,0.142,1.057,0.212,1.65,0.212c0.841,0,1.521-0.138,2.04-0.412
		c0.52-0.274,0.779-0.734,0.779-1.379v-18.032h-5.341V649.92z"/>
	<polygon fill="#FFFFFF" points="939.488,643.804 920.94,643.804 920.94,635.897 915.301,635.897 915.301,655.295 920.94,655.295 
		920.94,647.559 939.488,647.559 939.488,655.295 945.089,655.295 945.089,635.897 939.488,635.897 	"/>
	<path fill="#FFFFFF" d="M887.256,636.254c-1.236,0.237-2.226,0.616-2.967,1.138c-0.743,0.521-1.268,1.209-1.577,2.062
		c-0.309,0.854-0.464,1.887-0.464,3.101v6.085c0,1.233,0.155,2.271,0.464,3.114c0.309,0.845,0.834,1.527,1.577,2.048
		c0.741,0.522,1.73,0.9,2.967,1.138c1.237,0.238,2.784,0.356,4.638,0.356h17.546v-3.698h-17.25c-0.866,0-1.583-0.047-2.151-0.141
		c-0.569-0.096-1.015-0.267-1.336-0.513c-0.322-0.245-0.544-0.569-0.667-0.967c-0.124-0.398-0.185-0.9-0.185-1.508v-5.688
		c0-0.588,0.061-1.086,0.185-1.494c0.123-0.407,0.346-0.734,0.667-0.98c0.321-0.246,0.761-0.421,1.317-0.525
		c0.557-0.105,1.268-0.157,2.134-0.157h17.286v-3.727h-17.546C890.04,635.897,888.493,636.017,887.256,636.254"/>
	<path fill="#FFFFFF" d="M854.278,636.254c-1.237,0.237-2.226,0.616-2.967,1.138s-1.268,1.209-1.576,2.062
		c-0.31,0.854-0.465,1.887-0.465,3.101v6.085c0,1.233,0.155,2.271,0.465,3.114c0.309,0.845,0.834,1.527,1.576,2.048
		c0.742,0.522,1.73,0.9,2.967,1.138c1.237,0.238,2.783,0.356,4.638,0.356h17.657v-3.669h-17.657c-0.817,0-1.49-0.043-2.023-0.128
		c-0.532-0.085-0.945-0.241-1.242-0.47c-0.297-0.228-0.501-0.529-0.612-0.909c-0.112-0.38-0.167-0.863-0.167-1.451v-1.366h21.553
		v-3.439h-21.553v-1.309c0-0.569,0.055-1.043,0.167-1.422c0.111-0.38,0.321-0.683,0.63-0.91c0.31-0.229,0.723-0.394,1.243-0.498
		c0.519-0.104,1.187-0.156,2.003-0.156h17.657v-3.67h-17.657C857.061,635.897,855.515,636.017,854.278,636.254"/>
	<polygon fill="#FFFFFF" points="817.405,639.624 828.015,639.624 828.015,655.295 833.689,655.295 833.689,639.624 844.3,639.624 
		844.3,635.899 817.405,635.899 	"/>
	<rect x="751.424" y="643.37" fill="#FFFFFF" width="51.575" height="4.451"/>
	<rect x="1208.439" y="643.37" fill="#FFFFFF" width="51.713" height="4.451"/>
</g>
</svg>
